<?xml version="1.0" encoding="UTF-8"?>
<svg width="3000px" height="3000px" viewBox="0 0 3000 3000" version="1.1" xmlns="http://www.w3.org/2000/svg" xmlns:xlink="http://www.w3.org/1999/xlink">
    <!-- Generator: Sketch 51.2 (57519) - http://www.bohemiancoding.com/sketch -->
    <title>Artboard</title>
    <desc>Created with Sketch.</desc>
    <defs></defs>
    <g id="Artboard" stroke="none" stroke-width="1" fill="none" fill-rule="evenodd">
        <path d="M0,0 L3000,0 L3000,3000 L0,3000 L0,0 Z M2444.44444,1179.89418 L2121.69312,1825.39683 L2767.19577,1825.39683 L2444.44444,1179.89418 Z M2444.44444,201.058201 L2121.69312,846.560847 L2767.19577,846.560847 L2444.44444,201.058201 Z M2444.44444,2216.93122 L2121.69312,2862.43386 L2767.19577,2862.43386 L2444.44444,2216.93122 Z M785.714286,1666.66667 L439.153439,2359.78836 L1132.27513,2359.78836 L785.714286,1666.66667 Z M1626.98413,2169.31217 L1280.42328,2862.43386 L1973.54497,2862.43386 L1626.98413,2169.31217 Z M1626.98413,708.994709 L1280.42328,1402.1164 L1973.54497,1402.1164 L1626.98413,708.994709 Z M756.613757,211.640212 L439.153439,846.560847 L1074.07407,846.560847 L756.613757,211.640212 Z" id="Combined-Shape" fill="#333" fill-rule="nonzero"></path>
    </g>
</svg>